<svg style="position:absolute;width:0;height:0" version="1.1" xmlns="http://www.w3.org/2000/svg" overflow="hidden"><defs><symbol id="icon-angle-down" viewBox="0 0 21 32"><path class="path1" d="M19.196 13.143q0 .232-.179.411l-8.321 8.321q-.179.179-.411.179t-.411-.179l-8.321-8.321q-.179-.179-.179-.411t.179-.411l.893-.893q.179-.179.411-.179t.411.179l7.018 7.018 7.018-7.018q.179-.179.411-.179t.411.179l.893.893q.179.179.179.411z"/></symbol><symbol id="icon-bars" viewBox="0 0 27 32"><path class="path1" d="M27.429 24v2.286q0 .464-.339.804t-.804.339H1.143q-.464 0-.804-.339T0 26.286V24q0-.464.339-.804t.804-.339h25.143q.464 0 .804.339t.339.804zm0-9.143v2.286q0 .464-.339.804t-.804.339H1.143q-.464 0-.804-.339T0 17.143v-2.286q0-.464.339-.804t.804-.339h25.143q.464 0 .804.339t.339.804zm0-9.143V8q0 .464-.339.804t-.804.339H1.143q-.464 0-.804-.339T0 8V5.714q0-.464.339-.804t.804-.339h25.143q.464 0 .804.339t.339.804z"/></symbol><symbol id="icon-chain" viewBox="0 0 30 32"><path class="path1" d="M26 21.714q0-.714-.5-1.214l-3.714-3.714q-.5-.5-1.214-.5-.75 0-1.286.571.054.054.339.33t.384.384.268.339.232.455.063.491q0 .714-.5 1.214t-1.214.5q-.268 0-.491-.063t-.455-.232-.339-.268-.384-.384-.33-.339q-.589.554-.589 1.304 0 .714.5 1.214l3.679 3.696q.482.482 1.214.482.714 0 1.214-.464l2.625-2.607q.5-.5.5-1.196zM13.446 9.125q0-.714-.5-1.214L9.267 4.215q-.5-.5-1.214-.5-.696 0-1.214.482L4.214 6.804q-.5.5-.5 1.196 0 .714.5 1.214l3.714 3.714q.482.482 1.214.482.75 0 1.286-.554-.054-.054-.339-.33t-.384-.384-.268-.339-.232-.455-.063-.491q0-.714.5-1.214t1.214-.5q.268 0 .491.063t.455.232.339.268.384.384.33.339q.589-.554.589-1.304zm15.983 12.589q0 2.143-1.518 3.625l-2.625 2.607q-1.482 1.482-3.625 1.482-2.161 0-3.643-1.518l-3.679-3.696q-1.482-1.482-1.482-3.625 0-2.196 1.571-3.732l-1.571-1.571q-1.536 1.571-3.714 1.571-2.143 0-3.643-1.5l-3.714-3.714Q.286 10.143.286 8t1.518-3.625l2.625-2.607Q5.911.286 8.054.286q2.161 0 3.643 1.518L15.376 5.5q1.482 1.482 1.482 3.625 0 2.196-1.571 3.732l1.571 1.571q1.536-1.571 3.714-1.571 2.143 0 3.643 1.5l3.714 3.714q1.5 1.5 1.5 3.643z"/></symbol><symbol id="icon-close" viewBox="0 0 25 32"><path class="path1" d="M23.179 23.607q0 .714-.5 1.214L20.25 27.25q-.5.5-1.214.5t-1.214-.5L12.572 22l-5.25 5.25q-.5.5-1.214.5t-1.214-.5l-2.429-2.429q-.5-.5-.5-1.214t.5-1.214l5.25-5.25-5.25-5.25q-.5-.5-.5-1.214t.5-1.214l2.429-2.429q.5-.5 1.214-.5t1.214.5l5.25 5.25 5.25-5.25q.5-.5 1.214-.5t1.214.5l2.429 2.429q.5.5.5 1.214t-.5 1.214l-5.25 5.25 5.25 5.25q.5.5.5 1.214z"/></symbol><symbol id="icon-search" viewBox="0 0 30 32"><path class="path1" d="M20.571 14.857q0-3.304-2.348-5.652t-5.652-2.348-5.652 2.348-2.348 5.652 2.348 5.652 5.652 2.348 5.652-2.348 2.348-5.652zm9.143 14.857q0 .929-.679 1.607T27.428 32q-.964 0-1.607-.679l-6.125-6.107q-3.196 2.214-7.125 2.214-2.554 0-4.884-.991t-4.018-2.679T.99 19.74t-.991-4.884.991-4.884 2.679-4.018 4.018-2.679 4.884-.991 4.884.991 4.018 2.679 2.679 4.018.991 4.884q0 3.929-2.214 7.125l6.125 6.125q.661.661.661 1.607z"/></symbol><symbol id="icon-behance" viewBox="0 0 37 32"><path class="path1" d="M33 6.054h-9.125v2.214H33V6.054zm-4.5 7.607q-1.607 0-2.607.938t-1.107 2.545h7.286q-.321-3.482-3.571-3.482zm.286 10.446q1.125 0 2.179-.571t1.357-1.554h3.946q-1.786 5.482-7.625 5.482-3.821 0-6.08-2.357t-2.259-6.196q0-3.714 2.33-6.17t6.009-2.455q2.464 0 4.295 1.214t2.732 3.196.902 4.429q0 .304-.036.839h-11.75q0 1.982 1.027 3.063t2.973 1.08zm-23.84-.893h5.286q3.661 0 3.661-2.982 0-3.214-3.554-3.214H4.946v6.196zm0-9.589h5.018q1.393 0 2.205-.652t.813-2.027q0-2.571-3.393-2.571H4.946v5.25zM0 4.536h10.607q1.554 0 2.768.25t2.259.848 1.607 1.723.563 2.75q0 3.232-3.071 4.696 2.036.571 3.071 2.054T18.84 20.5q0 1.339-.438 2.438t-1.179 1.848-1.759 1.268-2.161.75-2.393.232H-.001v-22.5z"/></symbol><symbol id="icon-codepen" viewBox="0 0 32 32"><path class="path1" d="M3.857 20.875l10.768 7.179v-6.411l-5.964-3.982zM2.75 18.304L6.196 16 2.75 13.696v4.607zm14.625 9.75l10.768-7.179-4.804-3.214-5.964 3.982v6.411zM16 19.25L20.857 16 16 12.75 11.143 16zm-7.339-4.911l5.964-3.982V3.946L3.857 11.125zM25.804 16l3.446 2.304v-4.607zm-2.465-1.661l4.804-3.214-10.768-7.179v6.411zM32 11.125v9.75q0 .732-.607 1.143l-14.625 9.75Q16.393 32 16 32t-.768-.232L.607 22.018Q0 21.607 0 20.875v-9.75q0-.732.607-1.143L15.232.232Q15.607 0 16 0t.768.232l14.625 9.75q.607.411.607 1.143z"/></symbol><symbol id="icon-deviantart" viewBox="0 0 18 32"><path class="path1" d="M18.286 5.411l-5.411 10.393.429.554h4.982v7.411H9.232l-.786.536L5.91 29.18l-.536.536H-.001v-5.411L5.41 13.894l-.429-.536H-.001V5.947h9.054l.786-.536L12.375.536 12.911 0h5.375v5.411z"/></symbol><symbol id="icon-digg" viewBox="0 0 37 32"><path class="path1" d="M5.857 5.036H9.5V22.59H0V10.144h5.857V5.037zm0 14.625v-6.589H3.661v6.589h2.196zm5.107-9.518v12.446h3.661V10.143h-3.661zm0-5.107v3.643h3.661V5.036h-3.661zm5.125 5.107h9.518v16.821h-9.518v-2.911h5.857v-1.464h-5.857V10.143zm5.857 9.518v-6.589H19.75v6.589h2.196zm5.125-9.518h9.5v16.821h-9.5v-2.911h5.839v-1.464h-5.839V10.143zm5.84 9.518v-6.589h-2.196v6.589h2.196z"/></symbol><symbol id="icon-dockerhub" viewBox="0 0 24 28"><path class="path1" d="M1.597 10.257h2.911v2.83H1.597v-2.83zm3.573 0h2.91v2.83H5.17v-2.83zm0-3.627h2.91v2.829H5.17V6.63zm3.57 3.627h2.912v2.83H8.74v-2.83zm0-3.627h2.912v2.829H8.74V6.63zm3.573 3.627h2.911v2.83h-2.911v-2.83zm0-3.627h2.911v2.829h-2.911V6.63zm3.572 3.627h2.911v2.83h-2.911v-2.83zM12.313 3h2.911v2.83h-2.911V3zm-6.65 14.173a.8.8 0 0 0-.812.788.8.8 0 0 0 .812.788.8.8 0 0 0 .811-.788.8.8 0 0 0-.811-.788"/><path class="path2" d="M28.172 11.721c-.978-.549-2.278-.624-3.388-.306-.136-1.146-.91-2.149-1.83-2.869l-.366-.286-.307.345c-.618.692-.8 1.845-.718 2.73.063.651.273 1.312.685 1.834a5.37 5.37 0 0 1-.985.434 6.59 6.59 0 0 1-2.028.33H.083l-.042.429c-.137 1.432.065 2.866.674 4.173l.262.519.03.048c1.8 2.973 4.963 4.225 8.41 4.225 6.672 0 12.174-2.896 14.702-9.015 1.689.085 3.417-.4 4.243-1.968l.211-.4-.401-.223zM5.664 19.458c-.85 0-1.542-.671-1.542-1.497 0-.825.691-1.498 1.541-1.498.849 0 1.54.672 1.54 1.497s-.69 1.498-1.539 1.498z"/></symbol><symbol id="icon-dribbble" viewBox="0 0 27 32"><path class="path1" d="M18.286 26.786q-.75-4.304-2.5-8.893h-.036l-.036.018q-.286.107-.768.295t-1.804.875-2.446 1.464-2.339 2.045-1.839 2.643l-.268-.196q3.286 2.679 7.464 2.679 2.357 0 4.571-.929zm-3.304-10.84q-.375-.875-.946-1.982-5.554 1.661-12.018 1.661Q2 15.75 2 16q0 2.214.786 4.223T5 23.821q.893-1.589 2.205-2.973t2.545-2.223 2.33-1.446 1.777-.857l.661-.232q.071-.018.232-.063t.232-.08zm-1.911-3.785q-2.143-3.804-4.357-6.75Q6.25 6.572 4.535 8.732t-2.286 4.857q5.393 0 10.821-1.429zm12.215 5.696q-3.75-1.071-7.304-.518 1.554 4.268 2.286 8.375 1.982-1.339 3.304-3.384t1.714-4.473zM10.911 4.625q-.018 0-.036.018.018-.018.036-.018zm10.535 2.589q-3.304-2.929-7.732-2.929-1.357 0-2.768.339 2.339 3.036 4.393 6.821 1.232-.464 2.321-1.08t1.723-1.098 1.17-1.018.67-.723zm3.983 8.661q-.054-4.143-2.661-7.321l-.018.018q-.161.214-.339.438t-.777.795-1.268 1.08-1.786 1.161-2.348 1.152q.446.946.786 1.696.036.107.116.313t.134.295q.643-.089 1.33-.125t1.313-.036 1.232.027 1.143.071 1.009.098.857.116.652.107.446.08zm2 .125q0 3.732-1.839 6.884t-4.991 4.991-6.884 1.839-6.884-1.839-4.991-4.991T.001 16 1.84 9.116t4.991-4.991 6.884-1.839 6.884 1.839 4.991 4.991T27.429 16z"/></symbol><symbol id="icon-dropbox" viewBox="0 0 32 32"><path class="path1" d="M7.179 12.625L16 18.071 9.893 23.16l-8.75-5.696zm17.607 9.911v1.929l-8.75 5.232v.018l-.018-.018-.018.018v-.018l-8.732-5.232v-1.929l2.625 1.714L16 19.179v-.036l.018.018.018-.018v.036l6.125 5.071zM9.893 2.107L16 7.196l-8.821 5.429-6.036-4.821zm14.928 10.518l6.036 4.839-8.732 5.696L16 18.071zM22.125 2.107l8.732 5.696-6.036 4.821L16 7.195z"/></symbol><symbol id="icon-envelope" viewBox="0 0 32 32"><path class="path1" d="M29.714 26.857V13.143q-.571.643-1.232 1.179-4.786 3.679-7.607 6.036-.911.768-1.482 1.196t-1.545.866-1.83.438h-.036q-.857 0-1.83-.438t-1.545-.866-1.482-1.196q-2.821-2.357-7.607-6.036-.661-.536-1.232-1.179v13.714q0 .232.17.402t.402.17h26.286q.232 0 .402-.17t.17-.402zm0-18.768v-.438l-.009-.232-.054-.223-.098-.161-.161-.134-.25-.045H2.856q-.232 0-.402.17t-.17.402q0 3 2.625 5.071 3.446 2.714 7.161 5.661l.625.527q.518.438.821.67t.795.563.902.491.768.161h.036q.357 0 .768-.161t.902-.491.795-.563.821-.67.625-.527q3.714-2.946 7.161-5.661.964-.768 1.795-2.063t.83-2.348zM32 7.429v19.429q0 1.179-.839 2.018t-2.018.839H2.857q-1.179 0-2.018-.839T0 26.858V7.429Q0 6.25.839 5.411t2.018-.839h26.286q1.179 0 2.018.839T32 7.429z"/></symbol><symbol id="icon-facebook" viewBox="0 0 19 32"><path class="path1" d="M17.125.214v4.714h-2.804q-1.536 0-2.071.643T11.714 7.5v3.375h5.232l-.696 5.286h-4.536v13.554H6.25V16.161H1.696v-5.286H6.25V6.982q0-3.321 1.857-5.152T13.053 0q2.625 0 4.071.214z"/></symbol><symbol id="icon-flickr" viewBox="0 0 27 32"><path class="path1" d="M22.286 2.286q2.125 0 3.634 1.509t1.509 3.634v17.143q0 2.125-1.509 3.634t-3.634 1.509H5.143q-2.125 0-3.634-1.509T0 24.572V7.429q0-2.125 1.509-3.634t3.634-1.509h17.143zM12.464 16q0-1.571-1.107-2.679t-2.679-1.107-2.679 1.107T4.892 16t1.107 2.679 2.679 1.107 2.679-1.107T12.464 16zm10.072 0q0-1.571-1.107-2.679t-2.679-1.107-2.679 1.107T14.964 16t1.107 2.679 2.679 1.107 2.679-1.107T22.536 16z"/></symbol><symbol id="icon-foursquare" viewBox="0 0 23 32"><path class="path1" d="M17.857 7.75l.661-3.464q.089-.411-.161-.714t-.625-.304H5.018q-.411 0-.688.304t-.277.661v19.661q0 .125.107.018l5.196-6.286q.411-.464.679-.598t.857-.134h4.268q.393 0 .661-.259t.321-.527q.429-2.321.661-3.411.071-.375-.205-.714t-.652-.339h-5.25q-.518 0-.857-.339t-.339-.857v-.75q0-.518.339-.848t.857-.33h6.179q.321 0 .625-.241t.357-.527zm4.054-3.964q-.268 1.304-.955 4.759t-1.241 6.25-.625 3.098q-.107.393-.161.58t-.25.58-.438.589-.688.375-1.036.179h-4.839q-.232 0-.393.179-.143.161-7.607 8.821-.393.446-1.045.509t-.866-.098q-.982-.393-.982-1.75V2.678q0-.982.679-1.83T3.607 0h15.857q1.696 0 2.268.946t.179 2.839zm0 0L19.09 17.893q.071-.304.625-3.098t1.241-6.25.955-4.759z"/></symbol><symbol id="icon-github" viewBox="0 0 27 32"><path class="path1" d="M13.714 2.286q3.732 0 6.884 1.839t4.991 4.991T27.428 16q0 4.482-2.616 8.063t-6.759 4.955q-.482.089-.714-.125t-.232-.536l.009-1.366q.009-1.312.009-2.402 0-1.732-.929-2.536 1.018-.107 1.83-.321t1.679-.696 1.446-1.188.946-1.875.366-2.688q0-2.125-1.411-3.679.661-1.625-.143-3.643-.5-.161-1.446.196t-1.643.786l-.679.429q-1.661-.464-3.429-.464t-3.429.464q-.286-.196-.759-.482t-1.491-.688-1.518-.241q-.804 2.018-.143 3.643-1.411 1.554-1.411 3.679 0 1.518.366 2.679t.938 1.875 1.438 1.196 1.679.696 1.83.321q-.696.643-.875 1.839-.375.179-.804.268t-1.018.089-1.17-.384-.991-1.116q-.339-.571-.866-.929t-.884-.429l-.357-.054q-.375 0-.518.08t-.089.205.161.25.232.214l.125.089q.393.179.777.679t.563.911l.179.411q.232.679.786 1.098t1.196.536 1.241.125.991-.063l.411-.071q0 .679.009 1.58t.009.973q0 .321-.232.536t-.714.125q-4.143-1.375-6.759-4.955t-2.616-8.063q0-3.732 1.839-6.884t4.991-4.991 6.884-1.839zM5.196 21.982q.054-.125-.125-.214-.179-.054-.232.036-.054.125.125.214.161.107.232-.036zm.554.607q.125-.089-.036-.286-.179-.161-.286-.054-.125.089.036.286.179.179.286.054zm.536.804q.161-.125 0-.339-.143-.232-.304-.107-.161.089 0 .321t.304.125zm.75.75q.143-.143-.071-.339-.214-.214-.357-.054-.161.143.071.339.214.214.357.054zm1.018.446q.054-.196-.232-.286-.268-.071-.339.125t.232.268q.268.107.339-.107zm1.125.09q0-.232-.304-.196-.286 0-.286.196 0 .232.304.196.286 0 .286-.196zm1.035-.179q-.036-.196-.321-.161-.286.054-.25.268t.321.143.25-.25z"/></symbol><symbol id="icon-google-plus" viewBox="0 0 41 32"><path class="path1" d="M25.661 16.304q0 3.714-1.554 6.616t-4.429 4.536-6.589 1.634q-2.661 0-5.089-1.036t-4.179-2.786-2.786-4.179T-.001 16t1.036-5.089 2.786-4.179T8 3.946t5.089-1.036q5.107 0 8.768 3.429L18.303 9.75q-2.089-2.018-5.214-2.018-2.196 0-4.063 1.107t-2.955 3.009T4.982 16t1.089 4.152 2.955 3.009 4.063 1.107q1.482 0 2.723-.411t2.045-1.027 1.402-1.402.875-1.482.384-1.321h-7.429v-4.5h12.357q.214 1.125.214 2.179zm15.482-2.179v3.75h-3.732v3.732h-3.75v-3.732h-3.732v-3.75h3.732v-3.732h3.75v3.732h3.732z"/></symbol><symbol id="icon-instagram" viewBox="0 0 27 32"><path class="path1" d="M18.286 16q0-1.893-1.339-3.232t-3.232-1.339-3.232 1.339T9.144 16t1.339 3.232 3.232 1.339 3.232-1.339T18.286 16zm2.464 0q0 2.929-2.054 4.982t-4.982 2.054-4.982-2.054T6.678 16t2.054-4.982 4.982-2.054 4.982 2.054T20.75 16zm1.929-7.321q0 .679-.482 1.161t-1.161.482-1.161-.482-.482-1.161.482-1.161 1.161-.482 1.161.482.482 1.161zM13.714 4.75l-1.366-.009q-1.241-.009-1.884 0t-1.723.054-1.839.179-1.277.33q-.893.357-1.571 1.036T3.018 7.911q-.196.518-.33 1.277t-.179 1.839-.054 1.723 0 1.884T2.464 16t-.009 1.366 0 1.884.054 1.723.179 1.839.33 1.277q.357.893 1.036 1.571t1.571 1.036q.518.196 1.277.33t1.839.179 1.723.054 1.884 0 1.366-.009 1.366.009 1.884 0 1.723-.054 1.839-.179 1.277-.33q.893-.357 1.571-1.036t1.036-1.571q.196-.518.33-1.277t.179-1.839.054-1.723 0-1.884T24.964 16t.009-1.366 0-1.884-.054-1.723-.179-1.839-.33-1.277q-.357-.893-1.036-1.571t-1.571-1.036q-.518-.196-1.277-.33t-1.839-.179-1.723-.054-1.884 0-1.366.009zM27.429 16q0 4.089-.089 5.661-.179 3.714-2.214 5.75t-5.75 2.214q-1.571.089-5.661.089t-5.661-.089q-3.714-.179-5.75-2.214T.09 21.661Q.001 20.09.001 16t.089-5.661q.179-3.714 2.214-5.75t5.75-2.214q1.571-.089 5.661-.089t5.661.089q3.714.179 5.75 2.214t2.214 5.75q.089 1.571.089 5.661z"/></symbol><symbol id="icon-linkedin" viewBox="0 0 27 32"><path class="path1" d="M6.232 11.161v17.696H.339V11.161h5.893zm.375-5.465Q6.625 7 5.705 7.875t-2.42.875h-.036q-1.464 0-2.357-.875t-.893-2.179q0-1.321.92-2.188t2.402-.866 2.375.866.911 2.188zm20.822 13.018v10.143h-5.875v-9.464q0-1.875-.723-2.938t-2.259-1.063q-1.125 0-1.884.616t-1.134 1.527q-.196.536-.196 1.446v9.875H9.483q.036-7.125.036-11.554t-.018-5.286l-.018-.857h5.875v2.571h-.036q.357-.571.732-1t1.009-.929 1.554-.777 2.045-.277q3.054 0 4.911 2.027t1.857 5.938z"/></symbol><symbol id="icon-medium" viewBox="0 0 32 32"><path class="path1" d="M10.661 7.518v20.946q0 .446-.223.759t-.652.313q-.304 0-.589-.143L.893 25.232q-.375-.179-.634-.598T0 23.804V3.447q0-.357.179-.607t.518-.25q.25 0 .786.268l9.125 4.571q.054.054.054.089zm1.143 1.803l9.536 15.464-9.536-4.75V9.321zM32 9.643v18.821q0 .446-.25.723t-.679.277-.839-.232l-7.875-3.929zM31.946 7.5q0 .054-4.58 7.491T22 23.696l-6.964-11.321 5.786-9.411q.304-.5.929-.5.25 0 .464.107l9.661 4.821q.071.036.071.107z"/></symbol><symbol id="icon-periscope" viewBox="0 0 24 28"><path class="path1" d="M12.285 1C6.696 1 2.277 5.643 2.277 11.243c0 5.851 7.77 14.578 10.007 14.578 1.959 0 9.729-8.728 9.729-14.578C22.015 5.643 17.596 1 12.285 1zm.032 15.551c-3.473 0-6.152-2.611-6.152-5.664 0-1.292.39-2.472 1.065-3.438.206 1.084 1.18 1.906 2.352 1.906 1.322 0 2.393-1.043 2.393-2.333a2.32 2.32 0 0 0-1.119-1.975 6.646 6.646 0 0 1 1.46-.161c3.133 0 5.81 2.611 5.81 5.998 0 3.056-2.677 5.667-5.809 5.667z"/></symbol><symbol id="icon-pinterest" viewBox="0 0 23 32"><path class="path1" d="M0 10.661q0-1.929.67-3.634t1.848-2.973 2.714-2.196T8.536.465t3.607-.464q2.821 0 5.25 1.188t3.946 3.455 1.518 5.125q0 1.714-.339 3.357t-1.071 3.161-1.786 2.67-2.589 1.839-3.375.688q-1.214 0-2.411-.571t-1.714-1.571q-.179.696-.5 2.009t-.42 1.696-.366 1.268-.464 1.268-.571 1.116-.821 1.384-1.107 1.545l-.25.089-.161-.179q-.268-2.804-.268-3.357 0-1.643.384-3.688t1.188-5.134.929-3.625q-.571-1.161-.571-3.018 0-1.482.929-2.786T9.86 6.626q1.089 0 1.696.723t.607 1.83q0 1.179-.786 3.411t-.786 3.339q0 1.125.804 1.866t1.946.741q.982 0 1.821-.446t1.402-1.214 1-1.696.679-1.973.357-1.982.116-1.777q0-3.089-1.955-4.813t-5.098-1.723q-3.571 0-5.964 2.313t-2.393 5.866q0 .786.223 1.518t.482 1.161.482.813.223.545q0 .5-.268 1.304t-.661.804q-.036 0-.304-.054-.911-.268-1.616-1T.778 14.494t-.58-1.929-.196-1.902z"/></symbol><symbol id="icon-pocket" viewBox="0 0 31 32"><path class="path1" d="M27.946 2.286q1.161 0 1.964.813t.804 1.973v9.268q0 3.143-1.214 6t-3.259 4.911-4.893 3.259-5.973 1.205q-3.143 0-5.991-1.205t-4.902-3.259-3.268-4.911-1.214-6V5.072q0-1.143.821-1.964t1.964-.821h25.161zm-12.571 19q.839 0 1.464-.589l7.214-6.929q.661-.625.661-1.518 0-.875-.616-1.491t-1.491-.616q-.839 0-1.464.589l-5.768 5.536-5.768-5.536q-.625-.589-1.446-.589-.875 0-1.491.616t-.616 1.491q0 .911.643 1.518l7.232 6.929q.589.589 1.446.589z"/></symbol><symbol id="icon-reddit" viewBox="0 0 32 32"><path class="path1" d="M32 15.107q0 1.036-.527 1.884t-1.42 1.295q.214.821.214 1.714 0 2.768-1.902 5.125t-5.188 3.723-7.143 1.366T8.9 28.848t-5.179-3.723T1.819 20q0-.839.196-1.679-.911-.446-1.464-1.313t-.554-1.902q0-1.464 1.036-2.509t2.518-1.045q1.518 0 2.589 1.125 3.893-2.714 9.196-2.893L17.407.48q.054-.232.268-.375t.464-.089l6.589 1.446q.321-.661.964-1.063t1.411-.402q1.107 0 1.893.777t.786 1.884-.786 1.893-1.893.786-1.884-.777-.777-1.884l-5.964-1.321-1.857 8.429q5.357.161 9.268 2.857 1.036-1.089 2.554-1.089 1.482 0 2.518 1.045t1.036 2.509zM7.464 18.661q0 1.107.777 1.893t1.884.786 1.893-.786.786-1.893-.786-1.884T10.125 16q-1.089 0-1.875.786t-.786 1.875zM21.929 25q.196-.196.196-.464t-.196-.464q-.179-.179-.446-.179t-.464.179q-.732.75-2.161 1.107t-2.857.357-2.857-.357-2.161-1.107q-.196-.179-.464-.179t-.446.179q-.196.179-.196.455t.196.473q.768.768 2.116 1.214t2.188.527 1.625.08 1.625-.08 2.188-.527T21.931 25zm-.054-3.661q1.107 0 1.884-.786t.777-1.893q0-1.089-.786-1.875t-1.875-.786q-1.107 0-1.893.777t-.786 1.884.786 1.893 1.893.786z"/></symbol><symbol id="icon-skype" viewBox="0 0 27 32"><path class="path1" d="M20.946 18.982q0-.893-.348-1.634t-.866-1.223-1.304-.875-1.473-.607-1.563-.411l-1.857-.429q-.536-.125-.786-.188t-.625-.205-.536-.286-.295-.375-.134-.536q0-1.375 2.571-1.375.768 0 1.375.214t.964.509.679.598.714.518.857.214q.839 0 1.348-.571t.509-1.375q0-.982-1-1.777T16.64 7.963t-3.25-.411q-1.214 0-2.357.277t-2.134.839-1.589 1.554-.598 2.295q0 1.089.339 1.902t1 1.348 1.429.866 1.839.58l2.607.643q1.607.393 2 .643.571.357.571 1.071 0 .696-.714 1.152t-1.875.455q-.911 0-1.634-.286t-1.161-.688-.813-.804-.821-.688-.964-.286q-.893 0-1.348.536T6.712 20.3q0 1.643 2.179 2.813t5.196 1.17q1.304 0 2.5-.33t2.188-.955 1.58-1.67.589-2.348zm6.483 3.875q0 2.839-2.009 4.848t-4.848 2.009q-2.321 0-4.179-1.429-1.375.286-2.679.286-2.554 0-4.884-.991t-4.018-2.679-2.679-4.018-.991-4.884q0-1.304.286-2.679-1.429-1.857-1.429-4.179 0-2.839 2.009-4.848t4.848-2.009q2.321 0 4.179 1.429 1.375-.286 2.679-.286 2.554 0 4.884.991t4.018 2.679 2.679 4.018.991 4.884q0 1.304-.286 2.679 1.429 1.857 1.429 4.179z"/></symbol><symbol id="icon-slideshare" viewBox="0 0 32 32"><path class="path1" d="M15.589 13.214q0 1.482-1.134 2.545t-2.723 1.063-2.723-1.063-1.134-2.545q0-1.5 1.134-2.554t2.723-1.054 2.723 1.054 1.134 2.554zm8.965 0q0 1.482-1.125 2.545t-2.732 1.063q-1.589 0-2.723-1.063t-1.134-2.545q0-1.5 1.134-2.554t2.723-1.054q1.607 0 2.732 1.054t1.125 2.554zm4.017 3.215V4.518q0-1.554-.571-2.205t-1.982-.652H6.161q-1.482 0-2.009.607t-.527 2.25v12.018q.768.411 1.58.714t1.446.5 1.446.33 1.268.196 1.25.071 1.045.009 1.009-.036.795-.036q1.214-.018 1.696.482.107.107.179.161.464.446 1.089.911.125-1.625 2.107-1.554.089 0 .652.027t.768.036.813.018.946-.018.973-.08 1.089-.152 1.107-.241 1.196-.348 1.205-.482 1.286-.616zm2.911-.09q-2.161 2.661-6.643 4.5 1.5 5.089-.411 8.304-1.179 2.018-3.268 2.643-1.857.571-3.25-.268-1.536-.911-1.464-2.929l-.018-5.821v-.018q-.143-.036-.438-.107t-.42-.089l-.018 6.036q.071 2.036-1.482 2.929-1.411.839-3.268.268-2.089-.643-3.25-2.679-1.875-3.214-.393-8.268-4.482-1.839-6.643-4.5-.446-.661-.071-1.125t1.071.018q.054.036.196.125t.196.143V3.108q0-1.286.839-2.196T4.783.001h22.446q1.196 0 2.036.911t.839 2.196v12.393l.375-.268q.696-.482 1.071-.018t-.071 1.125z"/></symbol><symbol id="icon-snapchat" viewBox="0 0 30 32"><path class="path1" d="M15.143 2.286q2.393-.018 4.295 1.223t2.92 3.438q.482 1.036.482 3.196 0 .839-.161 3.411.25.125.5.125.321 0 .911-.241t.911-.241q.518 0 1 .321t.482.821q0 .571-.563.964t-1.232.563-1.232.518-.563.848q0 .268.214.768.661 1.464 1.83 2.679t2.58 1.804q.5.214 1.429.411.5.107.5.625 0 1.25-3.911 1.839-.125.196-.196.696t-.25.83-.589.33q-.357 0-1.107-.116t-1.143-.116q-.661 0-1.107.089-.571.089-1.125.402t-1.036.679-1.036.723-1.357.598-1.768.241q-.929 0-1.723-.241t-1.339-.598-1.027-.723-1.036-.679-1.107-.402q-.464-.089-1.125-.089-.429 0-1.17.134t-1.045.134q-.446 0-.625-.33t-.25-.848-.196-.714Q.267 24.769.267 23.519q0-.518.5-.625.929-.196 1.429-.411 1.393-.571 2.58-1.804T6.606 18q.214-.5.214-.768 0-.5-.563-.848t-1.241-.527-1.241-.563-.563-.938q0-.482.464-.813t.982-.33q.268 0 .857.232t.946.232q.321 0 .571-.125-.161-2.536-.161-3.393 0-2.179.482-3.214 1.143-2.446 3.071-3.536t4.714-1.125z"/></symbol><symbol id="icon-soundcloud" viewBox="0 0 41 32"><path class="path1" d="M14 24.5l.286-4.304L14 10.857q-.018-.179-.134-.304t-.295-.125q-.161 0-.286.125t-.125.304l-.25 9.339.25 4.304q.018.179.134.295t.277.116q.393 0 .429-.411zm5.286-.518l.196-3.768-.214-10.464q0-.286-.232-.429-.143-.089-.286-.089t-.286.089q-.232.143-.232.429l-.018.107-.179 10.339.196 4.214v.018q0 .179.107.304.161.196.411.196.196 0 .357-.161.161-.125.161-.357zM.625 17.911l.357 2.286-.357 2.25q-.036.161-.161.161t-.161-.161l-.304-2.25.304-2.286q.036-.161.161-.161t.161.161zM2.161 16.5l.464 3.696-.464 3.625q-.036.161-.179.161-.161 0-.161-.179l-.411-3.607.411-3.696q0-.161.161-.161.143 0 .179.161zm1.643-.679l.446 4.375-.446 4.232q0 .196-.196.196-.179 0-.214-.196l-.375-4.232.375-4.375q.036-.214.214-.214.196 0 .196.214zm1.678-.125l.411 4.5-.411 4.357q-.036.232-.25.232-.232 0-.232-.232l-.375-4.357.375-4.5q0-.232.232-.232.214 0 .25.232zm1.679.322l.375 4.179-.375 4.393q-.036.286-.286.286-.107 0-.188-.08t-.08-.205l-.357-4.393.357-4.179q0-.107.08-.188t.188-.08q.25 0 .286.268zm1.678-2.607l.375 6.786-.375 4.393q0 .125-.089.223t-.214.098q-.286 0-.321-.321l-.321-4.393.321-6.786q.036-.321.321-.321.125 0 .214.098t.089.223zm1.679-1.536l.339 8.357-.339 4.357q0 .143-.098.241t-.241.098q-.321 0-.357-.339l-.286-4.357.286-8.357q.036-.339.357-.339.143 0 .241.098t.098.241zm1.75-.714l.321 9.036-.321 4.321q-.036.375-.393.375-.339 0-.375-.375l-.286-4.321.286-9.036q0-.161.116-.277t.259-.116q.161 0 .268.116t.125.277zm7 13.25zm-3.536-13.322L16 20.196l-.268 4.268q0 .179-.134.313t-.313.134-.304-.125-.143-.321l-.25-4.268.25-9.107q0-.196.134-.321t.313-.125.313.125.134.321zm1.768.34l.25 8.786-.25 4.214q0 .196-.143.339t-.339.143-.339-.143-.161-.339l-.214-4.214.214-8.786q.018-.214.161-.357t.339-.143.33.143.152.357zm3.786 8.785l-.25 4.125q0 .232-.161.393t-.393.161-.393-.161-.179-.393l-.107-2.036-.107-2.089.214-11.357v-.054q.036-.268.214-.429.161-.125.357-.125.143 0 .268.089.25.143.286.464zm19.857-.339q0 2.089-1.482 3.563t-3.571 1.473H22.054q-.232-.036-.393-.196t-.161-.393V8.268q0-.411.5-.589 1.518-.607 3.232-.607 3.482 0 6.036 2.348t2.857 5.777q.946-.393 1.964-.393 2.089 0 3.571 1.482t1.482 3.589z"/></symbol><symbol id="icon-spotify" viewBox="0 0 27 32"><path class="path1" d="M20.125 21.607q0-.571-.536-.911-3.446-2.054-7.982-2.054-2.375 0-5.125.607-.75.161-.75.929 0 .357.241.616t.634.259q.089 0 .661-.143 2.357-.482 4.339-.482 4.036 0 7.089 1.839.339.196.589.196.339 0 .589-.241t.25-.616zm1.714-3.839q0-.714-.625-1.089-4.232-2.518-9.786-2.518-2.732 0-5.411.75-.857.232-.857 1.143 0 .446.313.759t.759.313q.125 0 .661-.143 2.179-.589 4.482-.589 4.982 0 8.714 2.214.429.232.679.232.446 0 .759-.313t.313-.759zm1.929-4.429q0-.839-.714-1.25-2.25-1.304-5.232-1.973t-6.125-.67q-3.643 0-6.5.839-.411.125-.688.455t-.277.866q0 .554.366.929t.92.375q.196 0 .714-.143 2.375-.661 5.482-.661 2.839 0 5.527.607t4.527 1.696q.375.214.714.214.518 0 .902-.366t.384-.92zM27.429 16q0 3.732-1.839 6.884t-4.991 4.991-6.884 1.839-6.884-1.839-4.991-4.991T.001 16 1.84 9.116t4.991-4.991 6.884-1.839 6.884 1.839 4.991 4.991T27.429 16z"/></symbol><symbol id="icon-stumbleupon" viewBox="0 0 34 32"><path class="path1" d="M18.964 12.714v-2.107q0-.75-.536-1.286t-1.286-.536-1.286.536-.536 1.286v10.929q0 3.125-2.25 5.339t-5.411 2.214q-3.179 0-5.42-2.241t-2.241-5.42v-4.75h5.857v4.679q0 .768.536 1.295t1.286.527 1.286-.527.536-1.295V10.286q0-3.054 2.259-5.214t5.384-2.161q3.143 0 5.393 2.179t2.25 5.25v2.429l-3.482 1.036zm9.465 3.965h5.857v4.75q0 3.179-2.241 5.42t-5.42 2.241q-3.161 0-5.411-2.223t-2.25-5.366v-4.786l2.339 1.089 3.482-1.036v4.821q0 .75.536 1.277t1.286.527 1.286-.527.536-1.277v-4.911z"/></symbol><symbol id="icon-tumblr" viewBox="0 0 19 32"><path class="path1" d="M16.857 23.732l1.429 4.232q-.411.625-1.982 1.179t-3.161.571q-1.857.036-3.402-.464t-2.545-1.321T5.5 26.036t-.991-2.143-.295-2.107v-9.714h-3V8.233Q2.5 7.769 3.518 6.992t1.625-1.607 1.036-1.821.607-1.768.268-1.58q.018-.089.08-.152t.134-.063h4.357v7.571h5.946v4.5h-5.964v9.25q0 .536.116 1t.402.938.884.741 1.455.25q1.393-.036 2.393-.518z"/></symbol><symbol id="icon-twitch" viewBox="0 0 32 32"><path class="path1" d="M16 7.75v7.75h-2.589V7.75H16zm7.107 0v7.75h-2.589V7.75h2.589zm0 13.571l4.518-4.536V2.589H6.304v18.732h5.821v3.875L16 21.321h7.107zM30.214 0v18.089l-7.75 7.75h-5.821l-3.875 3.875H8.893v-3.875H1.786V5.16L3.732-.001h26.482z"/></symbol><symbol id="icon-twitter" viewBox="0 0 30 32"><path class="path1" d="M28.929 7.286q-1.196 1.75-2.893 2.982.018.25.018.75 0 2.321-.679 4.634t-2.063 4.437-3.295 3.759-4.607 2.607-5.768.973q-4.839 0-8.857-2.589.625.071 1.393.071 4.018 0 7.161-2.464-1.875-.036-3.357-1.152t-2.036-2.848q.589.089 1.089.089.768 0 1.518-.196-2-.411-3.313-1.991t-1.313-3.67v-.071q1.214.679 2.607.732-1.179-.786-1.875-2.054t-.696-2.75q0-1.571.786-2.911Q4.91 8.285 8.008 9.883t6.634 1.777q-.143-.679-.143-1.321 0-2.393 1.688-4.08t4.08-1.688q2.5 0 4.214 1.821 1.946-.375 3.661-1.393-.661 2.054-2.536 3.179 1.661-.179 3.321-.893z"/></symbol><symbol id="icon-vimeo" viewBox="0 0 32 32"><path class="path1" d="M30.518 9.25q-.179 4.214-5.929 11.625-5.946 7.696-10.036 7.696-2.536 0-4.286-4.696-.786-2.857-2.357-8.607-1.286-4.679-2.804-4.679-.321 0-2.268 1.357l-1.375-1.75q.429-.375 1.929-1.723T5.713 6.41q2.786-2.464 4.304-2.607 1.696-.161 2.732.991t1.446 3.634q.786 5.125 1.179 6.661.982 4.446 2.143 4.446.911 0 2.75-2.875 1.804-2.875 1.946-4.393.232-2.482-1.946-2.482-1.018 0-2.161.464 2.143-7.018 8.196-6.821 4.482.143 4.214 5.821z"/></symbol><symbol id="icon-vine" viewBox="0 0 27 32"><path class="path1" d="M26.732 14.768v3.536q-1.804.411-3.536.411-1.161 2.429-2.955 4.839T17 27.402t-2.286 1.902q-1.429.804-2.893-.054-.5-.304-1.08-.777t-1.518-1.491-1.83-2.295-1.92-3.286-1.884-4.357-1.634-5.616T.696 4.464H5.75Q6.214 8.357 7 11.58t1.866 5.661 2.17 4.205 2.5 3.482q3.018-3.018 5.125-7.25-2.536-1.286-3.982-3.929t-1.446-5.946q0-3.429 1.857-5.616t5.071-2.188q3.179 0 4.875 1.884t1.696 5.313q0 2.839-1.036 5.107-.125.018-.348.054t-.821.036-1.125-.107-1.107-.455-.902-.92q.554-1.839.554-3.286 0-1.554-.518-2.357t-1.411-.804q-.946 0-1.518.884t-.571 2.509q0 3.321 1.875 5.241t4.768 1.92q1.107 0 2.161-.25z"/></symbol><symbol id="icon-vk" viewBox="0 0 35 32"><path class="path1" d="M34.232 9.286q.411 1.143-2.679 5.25-.429.571-1.161 1.518-1.393 1.786-1.607 2.339-.304.732.25 1.446.304.375 1.446 1.464h.018l.071.071q2.518 2.339 3.411 3.946.054.089.116.223t.125.473-.009.607-.446.491-1.054.223l-4.571.071q-.429.089-1-.089t-.929-.393l-.357-.214q-.536-.375-1.25-1.143t-1.223-1.384-1.089-1.036-1.009-.277q-.054.018-.143.063t-.304.259-.384.527-.304.929-.116 1.384q0 .268-.063.491t-.134.33l-.071.089q-.321.339-.946.393h-2.054q-1.268.071-2.607-.295t-2.348-.946-1.839-1.179-1.259-1.027l-.446-.429q-.179-.179-.491-.536T6.499 21.3t-1.893-2.696-2.188-3.768-2.33-4.857q-.107-.286-.107-.482t.054-.286l.071-.107q.268-.339 1.018-.339l4.893-.036q.214.036.411.116t.286.152l.089.054q.286.196.429.571.357.893.821 1.848t.732 1.455l.286.518q.518 1.071 1 1.857t.866 1.223.741.688.607.25.482-.089q.036-.018.089-.089t.214-.393.241-.839.17-1.446 0-2.232q-.036-.714-.161-1.304t-.25-.821l-.107-.214q-.446-.607-1.518-.768-.232-.036.089-.429.304-.339.679-.536.946-.464 4.268-.429 1.464.018 2.411.232.357.089.598.241t.366.429.188.571.063.813-.018.982-.045 1.259-.027 1.473q0 .196-.018.75t-.009.857.063.723.205.696.402.438q.143.036.304.071t.464-.196.679-.616.929-1.196 1.214-1.92q1.071-1.857 1.911-4.018.071-.179.179-.313t.196-.188l.071-.054.089-.045.232-.054.357-.009 5.143-.036q.696-.089 1.143.045t.554.295z"/></symbol><symbol id="icon-wordpress" viewBox="0 0 32 32"><path class="path1" d="M2.268 16q0-2.911 1.196-5.589l6.554 17.946q-3.5-1.696-5.625-5.018T2.268 16zm23-.696q0 .339-.045.688t-.179.884-.205.786-.313 1.054-.313 1.036l-1.357 4.571-4.964-14.75q.821-.054 1.571-.143.339-.036.464-.33t-.045-.554-.509-.241l-3.661.179q-1.339-.018-3.607-.179-.214-.018-.366.089t-.205.268-.027.33.161.295.348.143l1.429.143 2.143 5.857-3 9-5-14.857q.821-.054 1.571-.143.339-.036.464-.33t-.045-.554-.509-.241l-3.661.179q-.125 0-.411-.009t-.464-.009q1.875-2.857 4.902-4.527t6.563-1.67q2.625 0 5.009.946t4.259 2.661h-.179q-.982 0-1.643.723t-.661 1.705q0 .214.036.429t.071.384.143.411.161.375.214.402.223.375.259.429.25.411q1.125 1.911 1.125 3.786zm-9.036 1.892l4.232 11.554q.018.107.089.196-2.25.786-4.554.786-2 0-3.875-.571zm11.804-7.785q1.696 3.107 1.696 6.589 0 3.732-1.857 6.884t-4.982 4.973l4.196-12.107q1.054-3.018 1.054-4.929 0-.75-.107-1.411zM16 0q3.25 0 6.214 1.268t5.107 3.411 3.411 5.107T32 16t-1.268 6.214-3.411 5.107-5.107 3.411T16 32t-6.214-1.268-5.107-3.411-3.411-5.107T0 16t1.268-6.214 3.411-5.107 5.107-3.411T16 0zm0 31.268q3.089 0 5.92-1.214t4.875-3.259 3.259-4.875T31.268 16t-1.214-5.92-3.259-4.875-4.875-3.259T16 .732t-5.92 1.214-4.875 3.259-3.259 4.875T.732 16t1.214 5.92 3.259 4.875 4.875 3.259T16 31.268z"/></symbol><symbol id="icon-yelp" viewBox="0 0 27 32"><path class="path1" d="M13.804 23.554v2.268q-.018 5.214-.107 5.446-.214.571-.911.714-.964.161-3.241-.679t-2.902-1.589q-.232-.268-.304-.643-.018-.214.071-.464.071-.179.607-.839t3.232-3.857q.018 0 1.071-1.25.268-.339.705-.438t.884.063q.429.179.67.518t.223.75zm-2.661-4.483q-.054.982-.929 1.25l-2.143.696q-4.911 1.571-5.214 1.571-.625-.036-.964-.643-.214-.446-.304-1.339-.143-1.357.018-2.973t.536-2.223 1-.571q.232 0 3.607 1.375 1.25.518 2.054.839l1.5.607q.411.161.634.545t.205.866zm14.75 5.304q-.125.964-1.634 2.875t-2.42 2.268q-.661.25-1.125-.125-.25-.179-3.286-5.125l-.839-1.375q-.25-.375-.205-.821t.348-.821q.625-.768 1.482-.464.018.018 2.125.714 3.625 1.179 4.321 1.42t.839.366q.5.393.393 1.089zm-12-11.286q.089 1.821-.964 2.179-1.036.304-2.036-1.268L4.143 3.321Q4 2.696 4.482 2.214q.732-.768 3.705-1.598t4.009-.563q.714.179.875.804.054.321.393 5.455t.429 6.777zm11.821 1.929q.054.696-.464 1.054-.268.179-5.875 1.536-1.196.268-1.625.411l.018-.036q-.411.107-.821-.071t-.661-.571q-.536-.839 0-1.554.018-.018 1.339-1.821 2.232-3.054 2.679-3.643t.607-.696q.5-.339 1.161-.036.857.411 2.196 2.384t1.446 2.991v.054z"/></symbol><symbol id="icon-youtube" viewBox="0 0 27 32"><path class="path1" d="M17.339 22.214v3.768q0 1.196-.696 1.196-.411 0-.804-.393V21.41q.393-.393.804-.393.696 0 .696 1.196zm6.036.018v.821h-1.607v-.821q0-1.214.804-1.214t.804 1.214zm-17.25-3.893h1.911V16.66H2.465v1.679H4.34V28.5h1.786V18.339zM11.268 28.5h1.589v-8.821h-1.589v6.75q-.536.75-1.018.75-.321 0-.375-.375-.018-.054-.018-.625v-6.5H8.268v6.982q0 .875.143 1.304.214.661 1.036.661.857 0 1.821-1.089v.964zm7.661-2.643v-3.518q0-1.304-.161-1.768-.304-1-1.268-1-.893 0-1.661.964V16.66H14.25v11.839h1.589v-.857q.804.982 1.661.982.964 0 1.268-.982.161-.482.161-1.786zm6.035-.178v-.232h-1.625q0 .911-.036 1.089-.125.643-.714.643-.821 0-.821-1.232v-1.554h3.196v-1.839q0-1.411-.482-2.071-.696-.911-1.893-.911-1.214 0-1.911.911-.5.661-.5 2.071v3.089q0 1.411.518 2.071.696.911 1.929.911 1.286 0 1.929-.946.321-.482.375-.964.036-.161.036-1.036zM14.107 9.375v-3.75q0-1.232-.768-1.232t-.768 1.232v3.75q0 1.25.768 1.25t.768-1.25zm12.839 13.411q0 4.179-.464 6.25-.25 1.054-1.036 1.768t-1.821.821Q20.339 32 13.714 32t-9.911-.375q-1.036-.107-1.83-.821T.946 29.036q-.464-2-.464-6.25 0-4.179.464-6.25.25-1.054 1.036-1.768t1.839-.839q3.268-.357 9.893-.357t9.911.357q1.036.125 1.83.839t1.027 1.768q.464 2 .464 6.25zM9.125 0h1.821L8.785 7.125v4.839H6.999V7.125q-.25-1.321-1.089-3.786Q5.249 1.5 4.749 0h1.893L7.91 4.696zm6.607 5.946v3.125q0 1.446-.5 2.107-.661.911-1.893.911-1.196 0-1.875-.911-.5-.679-.5-2.107V5.946q0-1.429.5-2.089.679-.911 1.875-.911 1.232 0 1.893.911.5.661.5 2.089zm5.982-2.892v8.911h-1.625v-.982q-.946 1.107-1.839 1.107-.821 0-1.054-.661-.143-.429-.143-1.339V3.054h1.625v6.554q0 .589.018.625.054.393.375.393.482 0 1.018-.768V3.054h1.625z"/></symbol></defs></svg>